# File created by Blade
# Date/Time:  Tue Apr 07 20:49:23 2015
# Frame Rate: 120.000 fps
#------------------------------------------------------
:FULLY-SPECIFIED
:DEGREES
668
root 0.914827 34.118682 -6.385569 -8.865729 50.745198 -111.852388
Spine -45.995675 -10.193089 35.361228
Head -15.574693 31.204065 32.606550
LeftShoulder -26.006159 37.989627 30.032575
LeftArm 77.944329 -69.695715 -71.917202
LeftForeArm 15.206522 -0.000000 11.776604
LeftHand 7.463990 -0.000000 15.760543
LeftHandThumb1 -26.253704 0.000000 33.147579
RightShoulder -24.288759 -5.819837 -27.756369
RightArm -20.759697 36.087969 21.727327
RightForeArm 60.706146 -0.000000 -3.233532
RightHand 2.859634 -0.000000 15.036472
RightHandThumb1 -24.326973 -0.000000 -32.862282
LeftUpLeg -93.240763 40.476774 14.279791
LeftLeg -13.785825 -0.000000 0.000000
LeftFoot 8.277601 8.654662 -21.436649
LeftToeBase -6.334996 -0.000000 0.000000
RightUpLeg 33.265085 20.701298 -17.366250
RightLeg 58.474635 -0.000000 -0.000000
RightFoot 55.301188 10.706393 0.021787
RightToeBase 8.110627 -0.000000 -0.000000
669
root 0.911700 34.109518 -6.391610 -8.780381 50.774632 -111.856634
Spine -45.994826 -10.218103 35.367390
Head -15.761492 31.241018 32.494338
LeftShoulder -26.028305 37.928614 30.017559
LeftArm 77.965173 -69.704018 -71.935156
LeftForeArm 15.324800 0.000000 12.095212
LeftHand 7.516556 0.000000 15.914324
LeftHandThumb1 -26.253704 0.000000 33.147579
RightShoulder -24.320649 -5.733577 -27.773859
RightArm -20.775425 36.008903 21.716547
RightForeArm 60.688831 -0.000000 -3.200576
RightHand 2.820133 0.000000 15.106076
RightHandThumb1 -24.326973 -0.000000 -32.862282
LeftUpLeg -93.232452 40.329010 14.409766
LeftLeg -13.903703 -0.000000 0.000000
LeftFoot 8.715326 9.229981 -19.563963
LeftToeBase -7.901019 -0.000000 0.000000
RightUpLeg 33.279902 20.702709 -17.315941
RightLeg 58.493606 -0.000000 -0.000000
RightFoot 55.235914 10.666766 0.046372
RightToeBase 8.174879 -0.000000 -0.000000
670
root 0.908970 34.096055 -6.399626 -8.663256 50.790212 -111.825495
Spine -45.996592 -10.224338 35.369324
Head -15.943508 31.288406 32.357523
LeftShoulder -26.066738 37.915592 29.963917
LeftArm 78.249823 -69.753059 -72.224286
LeftForeArm 15.519831 -0.000000 12.416999
LeftHand 7.433210 0.000000 15.944756
LeftHandThumb1 -26.253704 0.000000 33.147579
RightShoulder -24.346063 -5.698009 -27.790160
RightArm -20.787370 36.060953 21.715853
RightForeArm 60.656310 -0.000000 -3.139728
RightHand 2.765818 -0.000000 15.111011
RightHandThumb1 -24.326973 -0.000000 -32.862282
LeftUpLeg -93.120946 40.172152 14.655795
LeftLeg -14.042805 -0.000000 0.000000
LeftFoot 8.968013 9.990561 -17.443176
LeftToeBase -8.769942 -0.000000 0.000000
RightUpLeg 33.278664 20.717882 -17.293401
RightLeg 58.491695 -0.000000 -0.000000
RightFoot 55.296354 10.640902 0.085047
RightToeBase 8.028578 -0.000000 -0.000000
671
root 0.905557 34.080090 -6.408555 -8.560208 50.796359 -111.805006
Spine -45.980864 -10.221079 35.387593
Head -16.151210 31.351798 32.175876
LeftShoulder -26.094710 37.864637 29.929124
LeftArm 78.324223 -69.774641 -72.340212
LeftForeArm 15.666455 0.000000 12.719530
LeftHand 7.490099 -0.000000 16.108562
LeftHandThumb1 -26.253704 0.000000 33.147579
RightShoulder -24.375606 -5.609489 -27.825908
RightArm -20.837346 36.112811 21.676371
RightForeArm 60.591689 -0.000000 -3.073547
RightHand 2.816406 -0.000000 14.985570
RightHandThumb1 -24.326973 -0.000000 -32.862282
LeftUpLeg -93.068593 39.996878 14.841767
LeftLeg -14.144042 -0.000000 0.000000
LeftFoot 9.235915 10.645463 -15.139827
LeftToeBase -9.528331 -0.000000 0.000000
RightUpLeg 33.267713 20.738564 -17.268614
RightLeg 58.506833 -0.000000 -0.000000
RightFoot 55.255429 10.680568 0.084334
RightToeBase 8.086544 -0.000000 -0.000000
672
root 0.903994 34.060571 -6.414889 -8.470375 50.772116 -111.790802
Spine -45.961488 -10.199612 35.416929
Head -16.318617 31.405057 32.010901
LeftShoulder -26.104003 37.820088 29.906600
LeftArm 78.498430 -69.815749 -72.574723
LeftForeArm 15.844796 0.000000 13.037564
LeftHand 7.380137 -0.000000 16.145991
LeftHandThumb1 -26.253704 0.000000 33.147579
RightShoulder -24.400859 -5.565969 -27.821466
RightArm -20.856090 36.239598 21.613832
RightForeArm 60.464651 0.000000 -3.023700
RightHand 2.854614 0.000000 14.946637
RightHandThumb1 -24.326973 -0.000000 -32.862282
LeftUpLeg -93.032626 39.863052 14.990175
LeftLeg -14.235214 -0.000000 0.000000
LeftFoot 9.397057 11.276342 -13.286193
LeftToeBase -10.563077 -0.000000 0.000000
RightUpLeg 33.251234 20.779714 -17.230058
RightLeg 58.508857 -0.000000 -0.000000
RightFoot 55.287683 10.661238 0.121977
RightToeBase 7.719588 -0.000000 -0.000000
673
root 0.904136 34.038864 -6.419963 -8.390615 50.728046 -111.817913
Spine -45.959344 -10.152718 35.504379
Head -16.492218 31.476766 31.810878
LeftShoulder -26.134281 37.796974 29.855419
LeftArm 78.622165 -69.852532 -72.773593
LeftForeArm 16.033731 -0.000000 13.312050
LeftHand 7.491021 -0.000000 16.179685
LeftHandThumb1 -26.253704 0.000000 33.147579
RightShoulder -24.417208 -5.509780 -27.833262
RightArm -20.850530 36.305862 21.570718
RightForeArm 60.392520 0.000000 -2.978348
RightHand 2.841620 -0.000000 14.882515
RightHandThumb1 -24.326973 -0.000000 -32.862282
LeftUpLeg -92.963190 39.780789 15.219779
LeftLeg -14.337778 -0.000000 0.000000
LeftFoot 9.515895 11.903849 -11.760316
LeftToeBase -11.135403 -0.000000 0.000000
RightUpLeg 33.208710 20.831439 -17.147333
RightLeg 58.492263 -0.000000 -0.000000
RightFoot 55.300198 10.636502 0.148378
RightToeBase 7.975143 -0.000000 -0.000000
674
root 0.904796 34.018025 -6.423608 -8.381358 50.661613 -111.923781
Spine -45.938628 -10.097061 35.649756
Head -16.645367 31.550477 31.622759
LeftShoulder -26.121708 37.756723 29.857290
LeftArm 78.695421 -69.897644 -73.017320
LeftForeArm 16.252909 -0.000000 13.646297
LeftHand 7.381199 -0.000000 16.184279
LeftHandThumb1 -26.253704 0.000000 33.147579
RightShoulder -24.428120 -5.424626 -27.849489
RightArm -20.858489 36.333615 21.508536
RightForeArm 60.317176 0.000000 -2.938344
RightHand 2.851393 -0.000000 14.807999
RightHandThumb1 -24.326973 -0.000000 -32.862282
LeftUpLeg -92.983844 39.723117 15.362109
LeftLeg -14.407782 -0.000000 0.000000
LeftFoot 9.644620 12.288971 -10.306474
LeftToeBase -11.501571 -0.000000 0.000000
RightUpLeg 33.169364 20.907563 -16.986690
RightLeg 58.490483 -0.000000 -0.000000
RightFoot 55.272284 10.702445 0.157696
RightToeBase 8.016873 -0.000000 -0.000000
675
root 0.905538 33.998705 -6.426166 -8.332856 50.619621 -112.008508
Spine -45.957181 -10.075180 35.792501
Head -16.790189 31.653885 31.472418
LeftShoulder -26.130371 37.730337 29.858754
LeftArm 78.528953 -69.929846 -72.995903
LeftForeArm 16.257871 -0.000000 13.939063
LeftHand 7.274598 -0.000000 16.326083
LeftHandThumb1 -26.253704 0.000000 33.147579
RightShoulder -24.410523 -5.339105 -27.845975
RightArm -20.859901 36.309481 21.460886
RightForeArm 60.236387 0.000000 -2.917613
RightHand 2.886467 0.000000 14.794338
RightHandThumb1 -24.326973 -0.000000 -32.862282
LeftUpLeg -92.939545 39.697525 15.568322
LeftLeg -14.528837 -0.000000 0.000000
LeftFoot 9.775492 12.653306 -8.977414
LeftToeBase -11.675745 -0.000000 0.000000
RightUpLeg 33.093218 20.931416 -16.854353
RightLeg 58.526049 -0.000000 -0.000000
RightFoot 55.291290 10.704892 0.130706
RightToeBase 7.752244 -0.000000 -0.000000
676
root 0.904782 33.980893 -6.428186 -8.287384 50.591275 -112.084325
Spine -45.979260 -10.066398 35.922190
Head -16.915665 31.739072 31.333447
LeftShoulder -26.179486 37.782488 29.765011
LeftArm 78.827343 -70.018147 -73.366510
LeftForeArm 16.403411 -0.000000 14.143123
LeftHand 7.349034 -0.000000 16.352913
LeftHandThumb1 -26.253704 0.000000 33.147579
RightShoulder -24.272539 -5.257505 -27.875313
RightArm -21.125337 36.300489 21.321685
RightForeArm 60.174028 -0.000000 -2.791824
RightHand 2.786465 -0.000000 14.787802
RightHandThumb1 -24.326973 -0.000000 -32.862282
LeftUpLeg -92.835571 39.701931 15.831238
LeftLeg -14.665172 -0.000000 0.000000
LeftFoot 9.896592 13.012149 -8.039578
LeftToeBase -11.900228 -0.000000 0.000000
RightUpLeg 33.029717 20.944256 -16.730589
RightLeg 58.574550 -0.000000 -0.000000
RightFoot 55.345548 10.619727 0.174093
RightToeBase 8.095680 -0.000000 -0.000000
677
root 0.902505 33.964842 -6.431467 -8.189674 50.603084 -112.117823
Spine -46.020863 -10.073304 35.981174
Head -17.073611 31.827532 31.253642
LeftShoulder -26.188437 37.736050 29.753575
LeftArm 78.759328 -70.059200 -73.357343
LeftForeArm 16.486721 -0.000000 14.314579
LeftHand 7.329960 0.000000 16.417790
LeftHandThumb1 -26.253704 0.000000 33.147579
RightShoulder -24.260209 -5.185053 -27.858301
RightArm -21.171108 36.149412 21.325574
RightForeArm 60.311380 -0.000000 -2.772754
RightHand 2.802856 -0.000000 14.843800
RightHandThumb1 -24.326973 -0.000000 -32.862282
LeftUpLeg -92.714092 39.698362 16.086780
LeftLeg -14.832035 -0.000000 0.000000
LeftFoot 10.049604 13.334566 -7.174438
LeftToeBase -12.075447 -0.000000 0.000000
RightUpLeg 32.944026 20.890973 -16.694281
RightLeg 58.640183 -0.000000 -0.000000
RightFoot 55.363480 10.624253 0.237819
RightToeBase 8.315780 -0.000000 -0.000000
678
root 0.898286 33.950098 -6.434095 -8.099759 50.664966 -112.126399
Spine -46.063042 -10.128832 35.990470
Head -17.237571 31.902300 31.204923
LeftShoulder -26.207933 37.725343 29.752959
LeftArm 79.015665 -70.067819 -73.683056
LeftForeArm 16.521006 -0.000000 14.467945
LeftHand 7.293075 -0.000000 16.498213
LeftHandThumb1 -26.253704 0.000000 33.147579
RightShoulder -24.285916 -5.233741 -27.791643
RightArm -21.167925 36.111694 21.383866
RightForeArm 60.456196 -0.000000 -2.730018
RightHand 2.828931 -0.000000 14.820028
RightHandThumb1 -24.326973 -0.000000 -32.862282
LeftUpLeg -92.469899 39.681959 16.477916
LeftLeg -15.016363 -0.000000 0.000000
LeftFoot 10.223893 13.696942 -6.616268
LeftToeBase -12.518507 -0.000000 0.000000
RightUpLeg 32.908228 20.780054 -16.692446
RightLeg 58.707628 -0.000000 -0.000000
RightFoot 55.387730 10.632246 0.346975
RightToeBase 8.132281 -0.000000 -0.000000
679
root 0.890358 33.935650 -6.437684 -7.944757 50.772418 -112.048785
Spine -46.124027 -10.213269 35.903456
Head -17.380614 31.927596 31.227893
LeftShoulder -26.154429 37.671117 29.822702
LeftArm 79.118775 -70.106656 -73.858358
LeftForeArm 16.742578 -0.000000 14.565462
LeftHand 7.246430 -0.000000 16.581349
LeftHandThumb1 -26.253704 0.000000 33.147579
RightShoulder -24.300472 -5.312910 -27.720631
RightArm -21.240831 36.109439 21.430177
RightForeArm 60.687625 0.000000 -2.664676
RightHand 2.821488 0.000000 14.914274
RightHandThumb1 -24.326973 -0.000000 -32.862282
LeftUpLeg -92.184327 39.636740 16.885947
LeftLeg -15.207822 -0.000000 0.000000
LeftFoot 10.398925 14.126155 -5.760955
LeftToeBase -12.702354 -0.000000 0.000000
RightUpLeg 32.885183 20.603074 -16.799212
RightLeg 58.770896 -0.000000 -0.000000
RightFoot 55.359422 10.644618 0.390666
RightToeBase 8.065334 -0.000000 -0.000000
